
<svg xmlns="http://www.w3.org/2000/svg" version="1.1" xmlns:xlink="http://www.w3.org/1999/xlink" preserveAspectRatio="none" x="0px" y="0px" width="241px" height="51px" viewBox="0 0 241 51">
<defs>
<g id="Layer0_0_MEMBER_0_MEMBER_0_MEMBER_0_FILL">
<path fill="#F8C800" stroke="none" d="
M 115.5 10.75
Q 99.35 13.15 84.55 19.25 72.05 24.3 60.55 32.25 49.75 39.6 40.05 49.2 33.6 55.65 28.75 62 19.35 73.8 13 87.1 0 113.85 0 146.15 0 163.65 3.75 179.6 12.3 215.3 40.05 242.9 79.8 282.75 135.35 283.25 134.95 283 134.55 282.5 134.4 282.45 134.4 282.3
L 134.1 281.9
Q 132.6 280.05 132.6 277.65 132.6 274.95 135.3 272.15 137.8 269.45 143.35 268.15
L 138.35 237.9
Q 135.35 238.45 132.3 238.5
L 127.55 238.5
Q 105.9 237.85 90.15 221.9 73.25 205.05 73.25 181
L 73.25 176.2
Q 73.25 173 74.4 168.95 79 146.75 97.05 132.6
L 101.4 129.45
Q 103.85 127.85 105.25 127.1
L 117.65 120.45 117.4 119.35
Q 115.15 105.7 114.4 92.1 114.15 90.15 114.15 87.2 113.4 69.75 115.15 51.95 115.65 45.05 116.8 38.05 119.95 22.35 129.35 9.45 122.5 9.75 115.5 10.75
M 148.75 175.5
Q 143 173.65 133.35 173.65
L 142.35 231.45
Q 149.4 228.75 153.55 226.2 155.05 225.3 155.65 224.85 159.7 221.6 162.35 217.4 167.25 210 167.25 200.45 167.25 188.9 159.05 181.25 154.6 177.2 148.75 175.5
M 108.05 142.65
Q 106.65 144.4 105.65 145.35 96.45 156.25 91.5 165.7 85.55 177.3 85.55 190.6 85.55 209.8 99.55 221.7 109.9 230.5 124.15 232.6 128.55 233.15 132.85 233.15 135.8 233.15 137.85 232.75
L 127.05 174.35
Q 117.15 176.25 113.15 184.95 112.55 185.95 112.4 186.95 111.15 190.2 111.3 194.65 111.3 203.6 114.9 209.15 108.3 204.05 106.05 199 103.65 194.05 103.65 187.9 103.65 179 107.3 171.7 110.15 167.5 112.55 165 117.65 159.9 124.05 157.75
L 120.75 132.45
Q 116.55 134.4 113.9 136.75 111.3 139.15 108.05 142.65
M 150.65 47.2
L 150.65 46.8
Q 150.65 42.35 150.4 39.45 149.95 31.6 148.3 25.65 146.2 16.9 142.1 16.9 140.35 16.9 138.5 18.15 130.85 25.5 125.15 44.05 120.25 60 120.25 73.75 120.25 80.9 120.55 87.2
L 120.9 93.95
Q 121.7 103 123.5 115.6
L 123.65 117.2 126.65 114.95 130.05 111.6
Q 135.45 105.75 138.5 100 139.15 98.7 139.4 97.95
L 139.8 97.25
Q 150.45 74.45 150.65 47.2 Z"/>
</g>

<g id="Layer0_0_MEMBER_0_MEMBER_0_MEMBER_1_FILL">
<path fill="#0097D7" stroke="none" d="
M 215.8 116.6
Q 217.2 77.6 210.8 30.5 184 12.9 151.05 9.9
L 152.1 12.85
Q 155.2 18.9 156.55 26.15 157.55 31.3 158.55 38.95
L 159.25 46.8
Q 160.7 65.85 157 82.85 191.05 103.5 215.8 116.6
M 273.5 158.15
Q 259.15 155.35 226.1 133.25 226.55 207.9 192.1 272.15 214.8 261.95 233.65 242.9 269.75 207.25 273.5 158.15 Z"/>
</g>

<g id="Layer0_0_MEMBER_0_MEMBER_0_MEMBER_2_FILL">
<path fill="#0054D8" stroke="none" d="
M 166.6 168.25
Q 172.55 172.25 175.5 179.15 178.25 186.25 178.25 194.7 178.25 207.8 170.85 217.9 166.8 223.3 161.05 227.65 158.3 229.7 154.6 231.85
L 150.8 233.95
Q 147.55 235.6 144.35 236.45
L 149.5 269.65 149.25 271.3
Q 208.75 224.1 215.35 126 190.55 108.95 156.85 83.35 155.6 88.75 153.85 94
L 153.35 95.95
Q 152.7 97.75 151.6 100
L 151.1 100.95
Q 147.45 108.9 143.1 114.6 137.7 121.8 126.55 129.85
L 130.35 156.35
Q 136 155.6 142.15 156.85 146.1 157.4 150.15 158.85 159.2 162.15 166.6 168.25
M 233.65 49.2
Q 222.95 38.45 210.9 30.55 224.05 78.8 225.85 121.85 258.25 138.4 273.85 139.7 271.6 87.05 233.65 49.2 Z"/>
</g>

<g id="Layer0_0_MEMBER_0_MEMBER_0_MEMBER_3_FILL">
<path fill="#000000" stroke="none" d="
M 210.9 30.55
L 210.65 29.9 210.8 30.5
Q 217.2 77.6 215.8 116.6 191.05 103.5 157 82.85 160.7 65.85 159.25 46.8
L 158.55 38.95
Q 157.55 31.3 156.55 26.15 155.2 18.9 152.1 12.85
L 151.05 9.9
Q 150.85 9.7 150.65 9.2 150.55 9.05 150.55 8.7 148.7 4.6 144.85 1.75 140.85 -1.2 138.05 0.9 133.8 3.7 131.25 6.85
L 129.35 9.45
Q 119.95 22.35 116.8 38.05 115.65 45.05 115.15 51.95 113.4 69.75 114.15 87.2 114.15 90.15 114.4 92.1 115.15 105.7 117.4 119.35
L 117.65 120.45 105.25 127.1
Q 103.85 127.85 101.4 129.45
L 97.05 132.6
Q 79 146.75 74.4 168.95 73.25 173 73.25 176.2
L 73.25 181
Q 73.25 205.05 90.15 221.9 105.9 237.85 127.55 238.5
L 132.3 238.5
Q 135.35 238.45 138.35 237.9
L 143.35 268.15
Q 137.8 269.45 135.3 272.15 132.6 274.95 132.6 277.65 132.6 280.05 134.1 281.9
L 134.4 282.3
Q 134.4 282.45 134.55 282.5 134.95 283 135.35 283.25 137.1 284.65 139.25 284.65 141.5 284.65 143.5 283.15 165.45 282.15 184.55 275.15 188.15 273.8 192.1 272.15 226.55 207.9 226.1 133.25 259.15 155.35 273.5 158.15 273.75 155.85 273.85 153.2
L 273.85 153.15
Q 273.85 151.9 274 150.85
L 274 146.15
Q 274 141.8 273.85 139.7 258.25 138.4 225.85 121.85 224.05 78.8 210.9 30.55
M 175.5 179.15
Q 172.55 172.25 166.6 168.25 159.2 162.15 150.15 158.85 146.1 157.4 142.15 156.85 136 155.6 130.35 156.35
L 126.55 129.85
Q 137.7 121.8 143.1 114.6 147.45 108.9 151.1 100.95
L 151.6 100
Q 152.7 97.75 153.35 95.95
L 153.85 94
Q 155.6 88.75 156.85 83.35 190.55 108.95 215.35 126 208.75 224.1 149.25 271.3
L 149.5 269.65 144.35 236.45
Q 147.55 235.6 150.8 233.95
L 154.6 231.85
Q 158.3 229.7 161.05 227.65 166.8 223.3 170.85 217.9 178.25 207.8 178.25 194.7 178.25 186.25 175.5 179.15
M 150.4 39.45
Q 150.65 42.35 150.65 46.8
L 150.65 47.2
Q 150.45 74.45 139.8 97.25
L 139.4 97.95
Q 139.15 98.7 138.5 100 135.45 105.75 130.05 111.6
L 126.65 114.95 123.65 117.2 123.5 115.6
Q 121.7 103 120.9 93.95
L 120.55 87.2
Q 120.25 80.9 120.25 73.75 120.25 60 125.15 44.05 130.85 25.5 138.5 18.15 140.35 16.9 142.1 16.9 146.2 16.9 148.3 25.65 149.95 31.6 150.4 39.45
M 108.05 142.65
Q 111.3 139.15 113.9 136.75 116.55 134.4 120.75 132.45
L 124.05 157.75
Q 117.65 159.9 112.55 165 110.15 167.5 107.3 171.7 103.65 179 103.65 187.9 103.65 194.05 106.05 199 108.3 204.05 114.9 209.15 111.3 203.6 111.3 194.65 111.15 190.2 112.4 186.95 112.55 185.95 113.15 184.95 117.15 176.25 127.05 174.35
L 137.85 232.75
Q 135.8 233.15 132.85 233.15 128.55 233.15 124.15 232.6 109.9 230.5 99.55 221.7 85.55 209.8 85.55 190.6 85.55 177.3 91.5 165.7 96.45 156.25 105.65 145.35 106.65 144.4 108.05 142.65
M 133.35 173.65
Q 143 173.65 148.75 175.5 154.6 177.2 159.05 181.25 167.25 188.9 167.25 200.45 167.25 210 162.35 217.4 159.7 221.6 155.65 224.85 155.05 225.3 153.55 226.2 149.4 228.75 142.35 231.45
L 133.35 173.65 Z"/>
</g>

<g id="Layer0_1_MEMBER_0_MEMBER_0_MEMBER_0_FILL">
<path fill="#FFFFFF" stroke="none" d="
M 139.05 10.75
Q 139.05 9.95 138.85 8.65 138.25 6.45 136.6 5.1 134.15 3 129.8 3
L 120.9 3 120.9 24.75 124.9 24.75 124.9 18.4 130.65 18.4 135.1 24.75 139.4 24.75 134.4 17.65 134.75 17.5
Q 136.8 16.6 137.9 14.9 138.75 13.6 138.9 12.1 139.05 11.45 139.05 10.75
M 132.65 7.1
L 133.65 7.7 133.8 7.85
Q 134.2 8.15 134.4 8.6 134.7 9 134.85 9.4
L 135.05 10.85 135.05 11.4
Q 134.8 13 133.65 13.95 132.35 15.1 130 15.1
L 124.9 15.1 124.9 6.6 129.9 6.6
Q 131.4 6.6 132.65 7.1
M 7.25 3
L 3.2 3 3.2 24.75 18.5 24.75 18.5 21.3 7.25 21.3 7.25 3
M 43.5 13.9
Q 43.5 11.45 42.7 9.4 41.8 7.4 40.25 5.95 38.7 4.45 36.5 3.55 34.45 2.75 31.85 2.75 29.3 2.75 27.25 3.55 25.1 4.45 23.5 5.95 21.9 7.5 21 9.4 20.2 11.45 20.2 13.9 20.2 16.4 21 18.3 21.9 20.35 23.5 21.9 25.1 23.4 27.25 24.15 29.25 25 31.85 25 34.5 25 36.5 24.15 38.7 23.4 40.25 21.9 41.8 20.45 42.7 18.3 43.5 16.4 43.5 13.9
M 37.3 8.4
Q 38.15 9.25 38.95 10.85 39.5 12.25 39.5 13.9 39.5 15.5 38.95 16.9 38.25 18.4 37.3 19.4 36.25 20.4 34.9 20.9 33.7 21.5 31.85 21.5 30.05 21.5 28.85 20.9 27.45 20.4 26.45 19.4 25.35 18.2 24.85 16.9 24.25 15.7 24.25 13.9 24.25 12.05 24.85 10.85 25.4 9.45 26.45 8.4 27.35 7.45 28.85 6.85 30.3 6.25 31.85 6.25 33.55 6.25 34.9 6.85 36.3 7.4 37.3 8.4
M 64.05 22.5
Q 66.55 20.05 66.55 15.25
L 66.55 3 62.65 3 62.65 15.15
Q 62.65 18.45 61.2 20 59.8 21.5 57.15 21.5 54.55 21.5 53.05 20 51.65 18.55 51.65 15.15
L 51.65 3 47.55 3 47.55 15.25
Q 47.55 20 50.15 22.5 52.6 25 57.15 25 61.55 25 64.05 22.5
M 92.05 3
L 88.05 3 80.75 19.75 73.55 3 69.15 3 78.65 24.75 82.65 24.75 92.05 3
M 115.75 9.4
Q 114.85 7.4 113.3 5.95 111.75 4.45 109.55 3.55 107.6 2.75 104.9 2.75 102.35 2.75 100.3 3.55 98.15 4.45 96.55 5.95 95.05 7.35 94.05 9.4 93.25 11.45 93.25 13.9 93.25 16.4 94.05 18.3 95.05 20.5 96.55 21.9 98.15 23.4 100.3 24.15 102.3 25 104.9 25 107.65 25 109.55 24.15 111.75 23.4 113.3 21.9 114.85 20.45 115.75 18.3 116.55 16.4 116.55 13.9 116.55 11.45 115.75 9.4
M 107.9 6.85
Q 109.4 7.4 110.4 8.4 111.2 9.3 112 10.85 112.55 12.25 112.55 13.9 112.55 15.5 112 16.9 111.3 18.35 110.4 19.4 109.35 20.35 107.9 20.9 106.7 21.5 104.9 21.5 103.1 21.5 101.9 20.9 100.5 20.4 99.5 19.4 98.45 18.35 97.9 16.9 97.3 15.55 97.3 13.9 97.3 12.2 97.9 10.85 98.5 9.35 99.5 8.4 100.5 7.4 101.9 6.85 103.25 6.25 104.9 6.25 106.55 6.25 107.9 6.85 Z"/>
</g>

<g id="Layer0_1_MEMBER_0_MEMBER_0_MEMBER_1_FILL">
<path fill="#F8C800" stroke="none" d="
M 144.75 3
L 144.75 6.45 152.4 6.45 152.4 17.65
Q 152.4 21.65 149.1 21.65 147.9 21.65 146.75 21 145.75 20.45 144.8 19.15
L 142.5 21.9
Q 143.6 23.45 145.35 24.25 147.1 25 149.15 25 152.75 25 154.6 23.15 156.5 21.25 156.5 17.4
L 156.5 3 144.75 3
M 181.85 38
L 181.85 32.3 143.9 32.3 143.9 38 181.85 38
M 172.75 3
L 168.8 3 159.05 24.75 163.15 24.75 165.35 19.75 176.15 19.75 178.35 24.75 182.55 24.75 172.75 3
M 174.85 16.55
L 166.65 16.55 170.75 7 174.85 16.55 Z"/>
</g>
</defs>

<g transform="matrix( 0.1657867431640625, 0, 0, 0.1657867431640625, 1.6,0) ">
<use xlink:href="#Layer0_0_MEMBER_0_MEMBER_0_MEMBER_0_FILL"/>
</g>

<g transform="matrix( 0.1657867431640625, 0, 0, 0.1657867431640625, 1.6,0) ">
<use xlink:href="#Layer0_0_MEMBER_0_MEMBER_0_MEMBER_1_FILL"/>
</g>

<g transform="matrix( 0.1657867431640625, 0, 0, 0.1657867431640625, 1.6,0) ">
<use xlink:href="#Layer0_0_MEMBER_0_MEMBER_0_MEMBER_2_FILL"/>
</g>

<g transform="matrix( 0.1657867431640625, 0, 0, 0.1657867431640625, 1.6,0) ">
<use xlink:href="#Layer0_0_MEMBER_0_MEMBER_0_MEMBER_3_FILL"/>
</g>

<g transform="matrix( 1, 0, 0, 1, 57.1,11.65) ">
<use xlink:href="#Layer0_1_MEMBER_0_MEMBER_0_MEMBER_0_FILL"/>
</g>

<g transform="matrix( 1, 0, 0, 1, 57.1,11.65) ">
<use xlink:href="#Layer0_1_MEMBER_0_MEMBER_0_MEMBER_1_FILL"/>
</g>
</svg>
