
<svg xmlns="http://www.w3.org/2000/svg" version="1.1" xmlns:xlink="http://www.w3.org/1999/xlink" preserveAspectRatio="none" x="0px" y="0px" width="186px" height="40px" viewBox="0 0 186 40">
<defs>
<g id="Layer0_0_FILL">
<path fill="#FFFFFF" stroke="none" d="
M 3.2 24.7
L 18.55 24.7 18.55 21.3 7.25 21.3 7.25 3 3.2 3 3.2 24.7
M 42.7 18.3
Q 43.55 16.3 43.55 13.85 43.55 11.45 42.7 9.4 41.85 7.4 40.25 5.9 38.7 4.4 36.55 3.55 34.45 2.7 31.9 2.7 29.4 2.7 27.25 3.55 25.1 4.4 23.5 5.9 21.95 7.4 21.05 9.4 20.2 11.45 20.2 13.85 20.2 16.3 21.05 18.3 21.95 20.35 23.5 21.85 25.1 23.35 27.25 24.15 29.4 25 31.9 25 34.45 25 36.55 24.15 38.7 23.35 40.25 21.85 41.85 20.35 42.7 18.3
M 31.9 6.25
Q 33.55 6.25 34.9 6.8 36.3 7.35 37.35 8.4 38.35 9.45 38.95 10.8 39.5 12.2 39.5 13.85 39.5 15.55 38.95 16.9 38.35 18.3 37.35 19.35 36.3 20.35 34.9 20.9 33.55 21.5 31.9 21.5 30.25 21.5 28.85 20.9 27.45 20.35 26.45 19.35 25.4 18.3 24.85 16.9 24.25 15.5 24.25 13.85 24.25 12.2 24.85 10.8 25.4 9.45 26.45 8.4 27.5 7.35 28.9 6.8 30.25 6.25 31.9 6.25
M 64.1 22.5
Q 66.6 20 66.6 15.25
L 66.6 3 62.65 3 62.65 15.1
Q 62.65 18.45 61.2 19.95 59.8 21.5 57.15 21.5 54.55 21.5 53.1 19.95 51.65 18.45 51.65 15.1
L 51.65 3 47.6 3 47.6 15.25
Q 47.6 20 50.15 22.5 52.65 25 57.15 25 61.55 25 64.1 22.5
M 82.65 24.7
L 92.1 3 88.05 3 80.75 19.75 73.55 3 69.2 3 78.65 24.7 82.65 24.7
M 115.75 9.4
Q 114.9 7.4 113.3 5.9 111.75 4.4 109.6 3.55 107.5 2.7 104.95 2.7 102.45 2.7 100.3 3.55 98.15 4.4 96.55 5.9 95 7.4 94.1 9.4 93.25 11.45 93.25 13.85 93.25 16.3 94.1 18.3 95 20.35 96.55 21.85 98.15 23.35 100.3 24.15 102.45 25 104.95 25 107.5 25 109.6 24.15 111.75 23.35 113.3 21.85 114.9 20.35 115.75 18.3 116.6 16.3 116.6 13.85 116.6 11.45 115.75 9.4
M 101.95 6.8
Q 103.3 6.25 104.95 6.25 106.6 6.25 107.95 6.8 109.35 7.35 110.4 8.4 111.4 9.45 112 10.8 112.55 12.2 112.55 13.85 112.55 15.55 112 16.9 111.4 18.3 110.4 19.35 109.35 20.35 107.95 20.9 106.6 21.5 104.95 21.5 103.3 21.5 101.9 20.9 100.5 20.35 99.5 19.35 98.45 18.3 97.9 16.9 97.3 15.5 97.3 13.85 97.3 12.2 97.9 10.8 98.45 9.45 99.5 8.4 100.55 7.35 101.95 6.8
M 138.95 12.05
Q 139.05 11.4 139.05 10.75 139.05 9.6 138.85 8.65 138.3 6.45 136.6 5.05 134.15 3 129.8 3
L 120.9 3 120.9 24.7 124.95 24.7 124.95 18.4 129.85 18.4
Q 130.25 18.4 130.7 18.4
L 135.1 24.7 139.45 24.7 134.45 17.6
Q 134.6 17.5 134.75 17.45 136.85 16.55 137.95 14.85 138.75 13.6 138.95 12.05
M 135.05 10.8
L 135.05 10.85
Q 135.05 11.1 135.05 11.35 134.85 12.95 133.7 13.95 132.35 15.05 130 15.05
L 124.95 15.05 124.95 6.6 129.95 6.6
Q 131.55 6.6 132.7 7.1 133.1 7.3 133.5 7.55 133.6 7.6 133.7 7.7 133.75 7.75 133.8 7.8 134.15 8.1 134.45 8.55 134.7 8.95 134.85 9.4
L 135.05 10.8 Z"/>

<path fill="#F8C800" stroke="none" d="
M 144.75 3
L 144.75 6.4 152.45 6.4 152.45 17.6
Q 152.45 21.6 149.1 21.6 147.85 21.6 146.75 21 145.7 20.35 144.8 19.1
L 142.5 21.9
Q 143.6 23.4 145.35 24.2 147.1 25 149.2 25 152.75 25 154.6 23.15 156.5 21.25 156.5 17.4
L 156.5 3 144.75 3
M 181.9 37.95
L 181.9 32.3 143.95 32.3 143.95 37.95 181.9 37.95
M 172.75 3
L 168.8 3 159.05 24.7 163.2 24.7 165.35 19.7 176.2 19.7 178.35 24.7 182.55 24.7 172.75 3
M 174.85 16.55
L 166.7 16.55 170.75 7 174.85 16.55 Z"/>
</g>
</defs>

<g transform="matrix( 1, 0, 0, 1, 0,0) ">
<use xlink:href="#Layer0_0_FILL"/>
</g>
</svg>
