
<svg xmlns="http://www.w3.org/2000/svg" version="1.1" xmlns:xlink="http://www.w3.org/1999/xlink" preserveAspectRatio="none" x="0px" y="0px" width="140px" height="40px" viewBox="0 0 140 40">
<defs>
<g id="Layer0_0_FILL">
<path fill="#FFFFFF" stroke="none" d="
M 3.2 24.7
L 18.55 24.7 18.55 21.3 7.25 21.3 7.25 3 3.2 3 3.2 24.7
M 42.7 18.3
Q 43.55 16.3 43.55 13.85 43.55 11.45 42.7 9.4 41.85 7.4 40.25 5.9 38.7 4.4 36.55 3.55 34.45 2.7 31.9 2.7 29.4 2.7 27.25 3.55 25.1 4.4 23.5 5.9 21.95 7.4 21.05 9.4 20.2 11.45 20.2 13.85 20.2 16.3 21.05 18.3 21.95 20.35 23.5 21.85 25.1 23.35 27.25 24.15 29.4 25 31.9 25 34.45 25 36.55 24.15 38.7 23.35 40.25 21.85 41.85 20.35 42.7 18.3
M 31.9 6.25
Q 33.55 6.25 34.9 6.8 36.3 7.35 37.35 8.4 38.35 9.45 38.95 10.8 39.5 12.2 39.5 13.85 39.5 15.55 38.95 16.9 38.35 18.3 37.35 19.35 36.3 20.35 34.9 20.9 33.55 21.5 31.9 21.5 30.25 21.5 28.85 20.9 27.45 20.35 26.45 19.35 25.4 18.3 24.85 16.9 24.25 15.5 24.25 13.85 24.25 12.2 24.85 10.8 25.4 9.45 26.45 8.4 27.5 7.35 28.9 6.8 30.25 6.25 31.9 6.25
M 69.25 9.4
Q 68.4 7.4 66.8 5.9 65.25 4.4 63.1 3.55 61 2.7 58.45 2.7 55.95 2.7 53.8 3.55 51.65 4.4 50.05 5.9 48.5 7.4 47.6 9.4 46.75 11.45 46.75 13.85 46.75 16.3 47.6 18.3 48.5 20.35 50.05 21.85 51.65 23.35 53.8 24.15 55.95 25 58.45 25 61 25 63.1 24.15 65.25 23.35 66.8 21.85 68.4 20.35 69.25 18.3 70.1 16.3 70.1 13.85 70.1 11.45 69.25 9.4
M 61.45 6.8
Q 62.85 7.35 63.9 8.4 64.9 9.45 65.5 10.8 66.05 12.2 66.05 13.85 66.05 15.55 65.5 16.9 64.9 18.3 63.9 19.35 62.85 20.35 61.45 20.9 60.1 21.5 58.45 21.5 56.8 21.5 55.4 20.9 54 20.35 53 19.35 51.95 18.3 51.4 16.9 50.8 15.5 50.8 13.85 50.8 12.2 51.4 10.8 51.95 9.45 53 8.4 54.05 7.35 55.45 6.8 56.8 6.25 58.45 6.25 60.1 6.25 61.45 6.8
M 92.45 12.05
Q 92.55 11.4 92.55 10.75 92.55 9.6 92.35 8.65 91.8 6.45 90.1 5.05 87.65 3 83.3 3
L 74.4 3 74.4 24.7 78.45 24.7 78.45 18.4 83.35 18.4
Q 83.75 18.4 84.2 18.4
L 88.6 24.7 92.95 24.7 87.95 17.6
Q 88.1 17.5 88.25 17.45 90.35 16.55 91.45 14.85 92.25 13.6 92.45 12.05
M 87.2 7.7
Q 87.25 7.75 87.3 7.8 87.65 8.1 87.95 8.55 88.2 8.95 88.35 9.4
L 88.55 10.8 88.55 10.85
Q 88.55 11.1 88.55 11.35 88.35 12.95 87.2 13.95 85.85 15.05 83.5 15.05
L 78.45 15.05 78.45 6.6 83.45 6.6
Q 85.05 6.6 86.2 7.1 86.6 7.3 87 7.55 87.1 7.6 87.2 7.7 Z"/>

<path fill="#F8C800" stroke="none" d="
M 108.1 23.15
Q 110 21.25 110 17.4
L 110 3 98.25 3 98.25 6.4 105.95 6.4 105.95 17.6
Q 105.95 21.6 102.6 21.6 101.35 21.6 100.25 21 99.2 20.35 98.3 19.1
L 96 21.9
Q 97.1 23.4 98.85 24.2 100.6 25 102.7 25 106.25 25 108.1 23.15
M 135.4 37.95
L 135.4 32.3 97.45 32.3 97.45 37.95 135.4 37.95
M 129.7 19.7
L 131.85 24.7 136.05 24.7 126.25 3 122.3 3 112.55 24.7 116.7 24.7 118.85 19.7 129.7 19.7
M 124.25 7
L 128.35 16.55 120.2 16.55 124.25 7 Z"/>
</g>

<g id="Symbol_1_0_Layer0_0_FILL">
<path fill="#F8C800" stroke="none" d="
M 182.45 48.4
L 182.45 42.75 144.5 42.75 144.5 48.4 182.45 48.4 Z"/>
</g>
</defs>

<g transform="matrix( 1, 0, 0, 1, 0,0) ">
<use xlink:href="#Layer0_0_FILL"/>
</g>

<g transform="matrix( 1, 0, 0, 1, 3.2,37.95) ">
<g transform="matrix( 1, 0, 0, 1, 0,0) ">
<use xlink:href="#Symbol_1_0_Layer0_0_FILL"/>
</g>
</g>
</svg>
